<mxfile host="app.diagrams.net" modified="2024-05-08T10:45:46.809Z" agent="Mozilla/5.0 (Windows NT 10.0; Win64; x64) AppleWebKit/537.36 (KHTML, like Gecko) Chrome/124.0.0.0 Safari/537.36" etag="hYflZYY2Uh0Do4fMQMAq" version="24.3.1" type="github">
  <diagram name="Pagina-1" id="NsCIWlI-wsy2xXNKLtzi">
    <mxGraphModel dx="1985" dy="803" grid="1" gridSize="10" guides="1" tooltips="1" connect="1" arrows="1" fold="1" page="1" pageScale="1" pageWidth="827" pageHeight="1169" math="0" shadow="0">
      <root>
        <mxCell id="0" />
        <mxCell id="1" parent="0" />
        <mxCell id="zvpY97_QarNmOb90CFdL-1" value="Issueing Micro credential intern" style="swimlane;childLayout=stackLayout;resizeParent=1;resizeParentMax=0;horizontal=0;startSize=20;horizontalStack=0;html=1;" parent="1" vertex="1">
          <mxGeometry x="40" y="410" width="720" height="720" as="geometry" />
        </mxCell>
        <mxCell id="zvpY97_QarNmOb90CFdL-2" value="Issuer" style="swimlane;startSize=20;horizontal=0;html=1;fillColor=#dae8fc;strokeColor=#6c8ebf;" parent="zvpY97_QarNmOb90CFdL-1" vertex="1">
          <mxGeometry x="20" width="700" height="120" as="geometry" />
        </mxCell>
        <mxCell id="zvpY97_QarNmOb90CFdL-3" value="Beloont deelnemer van module met MC" style="ellipse;whiteSpace=wrap;html=1;fillColor=#dae8fc;strokeColor=#6c8ebf;" parent="zvpY97_QarNmOb90CFdL-2" vertex="1">
          <mxGeometry x="30" y="10" width="160" height="50" as="geometry" />
        </mxCell>
        <mxCell id="zvpY97_QarNmOb90CFdL-4" value="Presenteer foutmelding" style="whiteSpace=wrap;html=1;fillColor=#dae8fc;strokeColor=#6c8ebf;rounded=0;" parent="zvpY97_QarNmOb90CFdL-2" vertex="1">
          <mxGeometry x="210" y="20" width="120" height="60" as="geometry" />
        </mxCell>
        <mxCell id="zvpY97_QarNmOb90CFdL-5" value="Presenteer link + log" style="whiteSpace=wrap;html=1;fillColor=#dae8fc;strokeColor=#6c8ebf;rounded=0;" parent="zvpY97_QarNmOb90CFdL-2" vertex="1">
          <mxGeometry x="360" y="20" width="120" height="60" as="geometry" />
        </mxCell>
        <mxCell id="zvpY97_QarNmOb90CFdL-6" value="Front-end" style="swimlane;startSize=20;horizontal=0;html=1;fillColor=#ffe6cc;strokeColor=#d79b00;" parent="zvpY97_QarNmOb90CFdL-1" vertex="1">
          <mxGeometry x="20" y="120" width="700" height="120" as="geometry" />
        </mxCell>
        <mxCell id="zvpY97_QarNmOb90CFdL-7" value="Ids(app) (Issuer en Ontvanger) en onderwijsmodule_id" style="rounded=0;whiteSpace=wrap;html=1;fillColor=#ffe6cc;strokeColor=#d79b00;" parent="zvpY97_QarNmOb90CFdL-6" vertex="1">
          <mxGeometry x="60" y="30" width="120" height="60" as="geometry" />
        </mxCell>
        <mxCell id="zvpY97_QarNmOb90CFdL-8" value="Genereer foutmelding" style="whiteSpace=wrap;html=1;fillColor=#ffe6cc;strokeColor=#d79b00;rounded=0;" parent="zvpY97_QarNmOb90CFdL-6" vertex="1">
          <mxGeometry x="210" y="30" width="120" height="60" as="geometry" />
        </mxCell>
        <mxCell id="zvpY97_QarNmOb90CFdL-9" value="Genereer bericht van succes" style="whiteSpace=wrap;html=1;fillColor=#ffe6cc;strokeColor=#d79b00;rounded=0;" parent="zvpY97_QarNmOb90CFdL-6" vertex="1">
          <mxGeometry x="360" y="30" width="120" height="60" as="geometry" />
        </mxCell>
        <mxCell id="zvpY97_QarNmOb90CFdL-10" style="edgeStyle=orthogonalEdgeStyle;rounded=0;orthogonalLoop=1;jettySize=auto;html=1;exitX=1;exitY=0.5;exitDx=0;exitDy=0;" parent="zvpY97_QarNmOb90CFdL-6" source="zvpY97_QarNmOb90CFdL-5" edge="1">
          <mxGeometry relative="1" as="geometry">
            <mxPoint x="539.9999999999998" y="499.9999877929688" as="targetPoint" />
            <mxPoint x="550" y="-90" as="sourcePoint" />
          </mxGeometry>
        </mxCell>
        <mxCell id="zvpY97_QarNmOb90CFdL-11" value="Api" style="swimlane;startSize=20;horizontal=0;html=1;fillColor=#d5e8d4;strokeColor=#82b366;" parent="zvpY97_QarNmOb90CFdL-1" vertex="1">
          <mxGeometry x="20" y="240" width="700" height="120" as="geometry" />
        </mxCell>
        <mxCell id="zvpY97_QarNmOb90CFdL-12" style="edgeStyle=orthogonalEdgeStyle;rounded=0;orthogonalLoop=1;jettySize=auto;html=1;" parent="zvpY97_QarNmOb90CFdL-11" source="zvpY97_QarNmOb90CFdL-14" edge="1">
          <mxGeometry relative="1" as="geometry">
            <mxPoint x="270" y="-30" as="targetPoint" />
          </mxGeometry>
        </mxCell>
        <mxCell id="zvpY97_QarNmOb90CFdL-13" value="onbekende&lt;br&gt;&amp;nbsp;param" style="edgeLabel;html=1;align=center;verticalAlign=middle;resizable=0;points=[];" parent="zvpY97_QarNmOb90CFdL-12" vertex="1" connectable="0">
          <mxGeometry x="-0.6003" relative="1" as="geometry">
            <mxPoint as="offset" />
          </mxGeometry>
        </mxCell>
        <mxCell id="zvpY97_QarNmOb90CFdL-14" value="Router triggert functies" style="rounded=0;whiteSpace=wrap;html=1;fillColor=#d5e8d4;strokeColor=#82b366;" parent="zvpY97_QarNmOb90CFdL-11" vertex="1">
          <mxGeometry x="62.5" y="20" width="120" height="60" as="geometry" />
        </mxCell>
        <mxCell id="zvpY97_QarNmOb90CFdL-15" value="Log en link door terug naar front-end" style="whiteSpace=wrap;html=1;fillColor=#d5e8d4;strokeColor=#82b366;rounded=0;" parent="zvpY97_QarNmOb90CFdL-11" vertex="1">
          <mxGeometry x="320" y="20" width="120" height="60" as="geometry" />
        </mxCell>
        <mxCell id="zvpY97_QarNmOb90CFdL-16" value="Database" style="swimlane;startSize=20;horizontal=0;html=1;fillColor=#fff2cc;strokeColor=#d6b656;" parent="zvpY97_QarNmOb90CFdL-1" vertex="1">
          <mxGeometry x="20" y="360" width="700" height="120" as="geometry" />
        </mxCell>
        <mxCell id="zvpY97_QarNmOb90CFdL-17" style="edgeStyle=orthogonalEdgeStyle;rounded=0;orthogonalLoop=1;jettySize=auto;html=1;entryX=0.5;entryY=1;entryDx=0;entryDy=0;" parent="zvpY97_QarNmOb90CFdL-16" source="zvpY97_QarNmOb90CFdL-18" target="zvpY97_QarNmOb90CFdL-21" edge="1">
          <mxGeometry relative="1" as="geometry" />
        </mxCell>
        <mxCell id="zvpY97_QarNmOb90CFdL-18" value="Logt de MC uitgifte,&lt;br&gt;2 public keys, module &amp;amp;&amp;nbsp;&lt;span style=&quot;background-color: initial;&quot;&gt;datum&lt;/span&gt;" style="rounded=0;whiteSpace=wrap;html=1;fillColor=#fff2cc;strokeColor=#d6b656;" parent="zvpY97_QarNmOb90CFdL-16" vertex="1">
          <mxGeometry x="170" y="60" width="120" height="60" as="geometry" />
        </mxCell>
        <mxCell id="zvpY97_QarNmOb90CFdL-19" value="Bestaat deze set aan data al?" style="rhombus;whiteSpace=wrap;html=1;fillColor=#f5f5f5;strokeColor=#666666;rounded=0;fontColor=#333333;" parent="zvpY97_QarNmOb90CFdL-16" vertex="1">
          <mxGeometry x="55" y="10" width="135" height="60" as="geometry" />
        </mxCell>
        <mxCell id="zvpY97_QarNmOb90CFdL-20" style="edgeStyle=orthogonalEdgeStyle;rounded=0;orthogonalLoop=1;jettySize=auto;html=1;entryX=0;entryY=0.5;entryDx=0;entryDy=0;" parent="zvpY97_QarNmOb90CFdL-16" source="zvpY97_QarNmOb90CFdL-19" target="zvpY97_QarNmOb90CFdL-18" edge="1">
          <mxGeometry relative="1" as="geometry" />
        </mxCell>
        <mxCell id="zvpY97_QarNmOb90CFdL-21" value="await&lt;div&gt;&lt;br&gt;&lt;/div&gt;" style="whiteSpace=wrap;html=1;fillColor=#e51400;strokeColor=#B20000;rounded=0;fontColor=#ffffff;" parent="zvpY97_QarNmOb90CFdL-16" vertex="1">
          <mxGeometry x="330" width="60" height="50" as="geometry" />
        </mxCell>
        <mxCell id="zvpY97_QarNmOb90CFdL-22" value="Walt.Id" style="swimlane;startSize=20;horizontal=0;html=1;fillColor=#e1d5e7;strokeColor=#9673a6;" parent="zvpY97_QarNmOb90CFdL-1" vertex="1">
          <mxGeometry x="20" y="480" width="700" height="120" as="geometry" />
        </mxCell>
        <mxCell id="zvpY97_QarNmOb90CFdL-23" value="CreÃ«ert de credetial en ontvang link" style="rounded=0;whiteSpace=wrap;html=1;fillColor=#e1d5e7;strokeColor=#9673a6;" parent="zvpY97_QarNmOb90CFdL-22" vertex="1">
          <mxGeometry x="170" y="20" width="120" height="60" as="geometry" />
        </mxCell>
        <mxCell id="zvpY97_QarNmOb90CFdL-24" value="&lt;span style=&quot;color: rgb(0, 0, 0); font-family: Helvetica; font-size: 12px; font-style: normal; font-variant-ligatures: normal; font-variant-caps: normal; font-weight: 700; letter-spacing: normal; orphans: 2; text-align: center; text-indent: 0px; text-transform: none; widows: 2; word-spacing: 0px; -webkit-text-stroke-width: 0px; white-space: nowrap; background-color: rgb(251, 251, 251); text-decoration-thickness: initial; text-decoration-style: initial; text-decoration-color: initial; display: inline !important; float: none;&quot;&gt;Ontvanger&lt;/span&gt;" style="swimlane;startSize=20;horizontal=0;html=1;" parent="zvpY97_QarNmOb90CFdL-1" vertex="1">
          <mxGeometry x="20" y="600" width="700" height="120" as="geometry" />
        </mxCell>
        <mxCell id="zvpY97_QarNmOb90CFdL-25" value="Ophaal link voor gebruiker" style="rounded=0;whiteSpace=wrap;html=1;" parent="zvpY97_QarNmOb90CFdL-24" vertex="1">
          <mxGeometry x="480" y="19.999987792968795" width="120" height="60" as="geometry" />
        </mxCell>
        <mxCell id="zvpY97_QarNmOb90CFdL-26" style="edgeStyle=orthogonalEdgeStyle;rounded=0;orthogonalLoop=1;jettySize=auto;html=1;entryX=0.5;entryY=0;entryDx=0;entryDy=0;" parent="zvpY97_QarNmOb90CFdL-1" source="zvpY97_QarNmOb90CFdL-3" target="zvpY97_QarNmOb90CFdL-7" edge="1">
          <mxGeometry relative="1" as="geometry" />
        </mxCell>
        <mxCell id="zvpY97_QarNmOb90CFdL-27" value="Geeft params door&lt;div&gt;&lt;br&gt;&lt;/div&gt;" style="edgeLabel;html=1;align=center;verticalAlign=middle;resizable=0;points=[];" parent="zvpY97_QarNmOb90CFdL-26" vertex="1" connectable="0">
          <mxGeometry x="-0.376" y="5" relative="1" as="geometry">
            <mxPoint as="offset" />
          </mxGeometry>
        </mxCell>
        <mxCell id="zvpY97_QarNmOb90CFdL-28" value="" style="edgeStyle=orthogonalEdgeStyle;rounded=0;orthogonalLoop=1;jettySize=auto;html=1;" parent="zvpY97_QarNmOb90CFdL-1" source="zvpY97_QarNmOb90CFdL-7" target="zvpY97_QarNmOb90CFdL-14" edge="1">
          <mxGeometry relative="1" as="geometry" />
        </mxCell>
        <mxCell id="zvpY97_QarNmOb90CFdL-29" value="Post request" style="edgeLabel;html=1;align=center;verticalAlign=middle;resizable=0;points=[];" parent="zvpY97_QarNmOb90CFdL-28" vertex="1" connectable="0">
          <mxGeometry x="-0.2267" relative="1" as="geometry">
            <mxPoint y="-3" as="offset" />
          </mxGeometry>
        </mxCell>
        <mxCell id="zvpY97_QarNmOb90CFdL-30" value="" style="edgeStyle=orthogonalEdgeStyle;rounded=0;orthogonalLoop=1;jettySize=auto;html=1;" parent="zvpY97_QarNmOb90CFdL-1" source="zvpY97_QarNmOb90CFdL-14" target="zvpY97_QarNmOb90CFdL-19" edge="1">
          <mxGeometry relative="1" as="geometry" />
        </mxCell>
        <mxCell id="zvpY97_QarNmOb90CFdL-31" style="edgeStyle=orthogonalEdgeStyle;rounded=0;orthogonalLoop=1;jettySize=auto;html=1;entryX=0;entryY=0.5;entryDx=0;entryDy=0;" parent="zvpY97_QarNmOb90CFdL-1" source="zvpY97_QarNmOb90CFdL-19" target="zvpY97_QarNmOb90CFdL-23" edge="1">
          <mxGeometry relative="1" as="geometry" />
        </mxCell>
        <mxCell id="zvpY97_QarNmOb90CFdL-32" value="Nee" style="edgeLabel;html=1;align=center;verticalAlign=middle;resizable=0;points=[];" parent="zvpY97_QarNmOb90CFdL-31" vertex="1" connectable="0">
          <mxGeometry x="-0.7467" y="4" relative="1" as="geometry">
            <mxPoint as="offset" />
          </mxGeometry>
        </mxCell>
        <mxCell id="zvpY97_QarNmOb90CFdL-33" value="" style="edgeStyle=orthogonalEdgeStyle;rounded=0;orthogonalLoop=1;jettySize=auto;html=1;" parent="zvpY97_QarNmOb90CFdL-1" source="zvpY97_QarNmOb90CFdL-19" target="zvpY97_QarNmOb90CFdL-8" edge="1">
          <mxGeometry relative="1" as="geometry" />
        </mxCell>
        <mxCell id="zvpY97_QarNmOb90CFdL-34" value="" style="edgeStyle=orthogonalEdgeStyle;rounded=0;orthogonalLoop=1;jettySize=auto;html=1;" parent="zvpY97_QarNmOb90CFdL-1" source="zvpY97_QarNmOb90CFdL-8" target="zvpY97_QarNmOb90CFdL-4" edge="1">
          <mxGeometry relative="1" as="geometry" />
        </mxCell>
        <mxCell id="zvpY97_QarNmOb90CFdL-35" value="" style="edgeStyle=orthogonalEdgeStyle;rounded=0;orthogonalLoop=1;jettySize=auto;html=1;" parent="zvpY97_QarNmOb90CFdL-1" source="zvpY97_QarNmOb90CFdL-21" target="zvpY97_QarNmOb90CFdL-15" edge="1">
          <mxGeometry relative="1" as="geometry" />
        </mxCell>
        <mxCell id="zvpY97_QarNmOb90CFdL-36" style="edgeStyle=orthogonalEdgeStyle;rounded=0;orthogonalLoop=1;jettySize=auto;html=1;entryX=0.5;entryY=1;entryDx=0;entryDy=0;" parent="zvpY97_QarNmOb90CFdL-1" source="zvpY97_QarNmOb90CFdL-23" target="zvpY97_QarNmOb90CFdL-21" edge="1">
          <mxGeometry relative="1" as="geometry">
            <mxPoint x="430" y="420" as="targetPoint" />
          </mxGeometry>
        </mxCell>
        <mxCell id="zvpY97_QarNmOb90CFdL-37" value="" style="edgeStyle=orthogonalEdgeStyle;rounded=0;orthogonalLoop=1;jettySize=auto;html=1;" parent="zvpY97_QarNmOb90CFdL-1" source="zvpY97_QarNmOb90CFdL-15" target="zvpY97_QarNmOb90CFdL-9" edge="1">
          <mxGeometry relative="1" as="geometry">
            <Array as="points">
              <mxPoint x="400" y="240" />
              <mxPoint x="440" y="240" />
            </Array>
          </mxGeometry>
        </mxCell>
        <mxCell id="zvpY97_QarNmOb90CFdL-38" value="" style="edgeStyle=orthogonalEdgeStyle;rounded=0;orthogonalLoop=1;jettySize=auto;html=1;" parent="zvpY97_QarNmOb90CFdL-1" source="zvpY97_QarNmOb90CFdL-9" target="zvpY97_QarNmOb90CFdL-5" edge="1">
          <mxGeometry relative="1" as="geometry" />
        </mxCell>
        <mxCell id="zvpY97_QarNmOb90CFdL-39" value="Issueing Micro credential ideaal intern" style="swimlane;childLayout=stackLayout;resizeParent=1;resizeParentMax=0;horizontal=0;startSize=20;horizontalStack=0;html=1;" parent="1" vertex="1">
          <mxGeometry x="40" y="1210" width="720" height="840" as="geometry" />
        </mxCell>
        <mxCell id="zvpY97_QarNmOb90CFdL-40" value="Issuer" style="swimlane;startSize=20;horizontal=0;html=1;fillColor=#dae8fc;strokeColor=#6c8ebf;" parent="zvpY97_QarNmOb90CFdL-39" vertex="1">
          <mxGeometry x="20" width="700" height="120" as="geometry" />
        </mxCell>
        <mxCell id="zvpY97_QarNmOb90CFdL-41" value="Beloont deelnemer van module met MC" style="ellipse;whiteSpace=wrap;html=1;fillColor=#dae8fc;strokeColor=#6c8ebf;" parent="zvpY97_QarNmOb90CFdL-40" vertex="1">
          <mxGeometry x="30" y="10" width="160" height="50" as="geometry" />
        </mxCell>
        <mxCell id="zvpY97_QarNmOb90CFdL-42" value="Presenteer foutmelding" style="whiteSpace=wrap;html=1;fillColor=#dae8fc;strokeColor=#6c8ebf;rounded=0;" parent="zvpY97_QarNmOb90CFdL-40" vertex="1">
          <mxGeometry x="210" y="20" width="120" height="60" as="geometry" />
        </mxCell>
        <mxCell id="zvpY97_QarNmOb90CFdL-43" value="Presenteer log" style="whiteSpace=wrap;html=1;fillColor=#dae8fc;strokeColor=#6c8ebf;rounded=0;" parent="zvpY97_QarNmOb90CFdL-40" vertex="1">
          <mxGeometry x="360" y="20" width="120" height="60" as="geometry" />
        </mxCell>
        <mxCell id="zvpY97_QarNmOb90CFdL-44" value="Front-end" style="swimlane;startSize=20;horizontal=0;html=1;fillColor=#ffe6cc;strokeColor=#d79b00;" parent="zvpY97_QarNmOb90CFdL-39" vertex="1">
          <mxGeometry x="20" y="120" width="700" height="120" as="geometry" />
        </mxCell>
        <mxCell id="zvpY97_QarNmOb90CFdL-45" value="Ids(app) (Issuer en Ontvanger) en onderwijsmodule_id" style="rounded=0;whiteSpace=wrap;html=1;fillColor=#ffe6cc;strokeColor=#d79b00;" parent="zvpY97_QarNmOb90CFdL-44" vertex="1">
          <mxGeometry x="60" y="30" width="120" height="60" as="geometry" />
        </mxCell>
        <mxCell id="zvpY97_QarNmOb90CFdL-46" value="Genereer foutmelding" style="whiteSpace=wrap;html=1;fillColor=#ffe6cc;strokeColor=#d79b00;rounded=0;" parent="zvpY97_QarNmOb90CFdL-44" vertex="1">
          <mxGeometry x="210" y="30" width="120" height="60" as="geometry" />
        </mxCell>
        <mxCell id="zvpY97_QarNmOb90CFdL-47" value="Genereer bericht van succes" style="whiteSpace=wrap;html=1;fillColor=#ffe6cc;strokeColor=#d79b00;rounded=0;" parent="zvpY97_QarNmOb90CFdL-44" vertex="1">
          <mxGeometry x="360" y="30" width="120" height="60" as="geometry" />
        </mxCell>
        <mxCell id="zvpY97_QarNmOb90CFdL-48" value="Api" style="swimlane;startSize=20;horizontal=0;html=1;fillColor=#d5e8d4;strokeColor=#82b366;" parent="zvpY97_QarNmOb90CFdL-39" vertex="1">
          <mxGeometry x="20" y="240" width="700" height="120" as="geometry" />
        </mxCell>
        <mxCell id="zvpY97_QarNmOb90CFdL-49" value="Router triggert functies" style="rounded=0;whiteSpace=wrap;html=1;fillColor=#d5e8d4;strokeColor=#82b366;" parent="zvpY97_QarNmOb90CFdL-48" vertex="1">
          <mxGeometry x="70" y="25" width="120" height="60" as="geometry" />
        </mxCell>
        <mxCell id="zvpY97_QarNmOb90CFdL-50" value="Log en link door terug naar front-end" style="whiteSpace=wrap;html=1;fillColor=#d5e8d4;strokeColor=#82b366;rounded=0;" parent="zvpY97_QarNmOb90CFdL-48" vertex="1">
          <mxGeometry x="320" y="20" width="120" height="60" as="geometry" />
        </mxCell>
        <mxCell id="zvpY97_QarNmOb90CFdL-51" value="Database" style="swimlane;startSize=20;horizontal=0;html=1;fillColor=#fff2cc;strokeColor=#d6b656;" parent="zvpY97_QarNmOb90CFdL-39" vertex="1">
          <mxGeometry x="20" y="360" width="700" height="120" as="geometry" />
        </mxCell>
        <mxCell id="zvpY97_QarNmOb90CFdL-52" style="edgeStyle=orthogonalEdgeStyle;rounded=0;orthogonalLoop=1;jettySize=auto;html=1;entryX=0.5;entryY=1;entryDx=0;entryDy=0;" parent="zvpY97_QarNmOb90CFdL-51" source="zvpY97_QarNmOb90CFdL-53" target="zvpY97_QarNmOb90CFdL-56" edge="1">
          <mxGeometry relative="1" as="geometry" />
        </mxCell>
        <mxCell id="zvpY97_QarNmOb90CFdL-53" value="Logt de MC uitgifte,&lt;br&gt;2 public keys, module &amp;amp;&amp;nbsp;&lt;span style=&quot;background-color: initial;&quot;&gt;datum&lt;/span&gt;" style="rounded=0;whiteSpace=wrap;html=1;fillColor=#fff2cc;strokeColor=#d6b656;" parent="zvpY97_QarNmOb90CFdL-51" vertex="1">
          <mxGeometry x="170" y="60" width="120" height="60" as="geometry" />
        </mxCell>
        <mxCell id="zvpY97_QarNmOb90CFdL-54" value="Bestaat deze set aan data al?" style="rhombus;whiteSpace=wrap;html=1;fillColor=#f5f5f5;strokeColor=#666666;rounded=0;fontColor=#333333;" parent="zvpY97_QarNmOb90CFdL-51" vertex="1">
          <mxGeometry x="75" width="110" height="50" as="geometry" />
        </mxCell>
        <mxCell id="zvpY97_QarNmOb90CFdL-55" style="edgeStyle=orthogonalEdgeStyle;rounded=0;orthogonalLoop=1;jettySize=auto;html=1;entryX=0;entryY=0.5;entryDx=0;entryDy=0;" parent="zvpY97_QarNmOb90CFdL-51" source="zvpY97_QarNmOb90CFdL-54" target="zvpY97_QarNmOb90CFdL-53" edge="1">
          <mxGeometry relative="1" as="geometry" />
        </mxCell>
        <mxCell id="zvpY97_QarNmOb90CFdL-56" value="await&lt;div&gt;&lt;br&gt;&lt;/div&gt;" style="whiteSpace=wrap;html=1;fillColor=#e51400;strokeColor=#B20000;rounded=0;fontColor=#ffffff;" parent="zvpY97_QarNmOb90CFdL-51" vertex="1">
          <mxGeometry x="330" width="60" height="50" as="geometry" />
        </mxCell>
        <mxCell id="zvpY97_QarNmOb90CFdL-57" value="Walt.Id" style="swimlane;startSize=20;horizontal=0;html=1;fillColor=#e1d5e7;strokeColor=#9673a6;" parent="zvpY97_QarNmOb90CFdL-39" vertex="1">
          <mxGeometry x="20" y="480" width="700" height="120" as="geometry" />
        </mxCell>
        <mxCell id="zvpY97_QarNmOb90CFdL-58" value="CreÃ«ert de credetial en ontvang link" style="rounded=0;whiteSpace=wrap;html=1;fillColor=#e1d5e7;strokeColor=#9673a6;" parent="zvpY97_QarNmOb90CFdL-57" vertex="1">
          <mxGeometry x="170" y="20" width="120" height="60" as="geometry" />
        </mxCell>
        <mxCell id="zvpY97_QarNmOb90CFdL-59" value="Wallet Ontvanger" style="swimlane;startSize=20;horizontal=0;html=1;fillColor=#f8cecc;strokeColor=#b85450;" parent="zvpY97_QarNmOb90CFdL-39" vertex="1">
          <mxGeometry x="20" y="600" width="700" height="120" as="geometry" />
        </mxCell>
        <mxCell id="zvpY97_QarNmOb90CFdL-60" value="Voeg MC toe" style="whiteSpace=wrap;html=1;fillColor=#f8cecc;strokeColor=#b85450;rounded=0;" parent="zvpY97_QarNmOb90CFdL-59" vertex="1">
          <mxGeometry x="480" y="30" width="120" height="60" as="geometry" />
        </mxCell>
        <mxCell id="zvpY97_QarNmOb90CFdL-61" value="&lt;span style=&quot;color: rgb(0, 0, 0); font-family: Helvetica; font-size: 12px; font-style: normal; font-variant-ligatures: normal; font-variant-caps: normal; font-weight: 700; letter-spacing: normal; orphans: 2; text-align: center; text-indent: 0px; text-transform: none; widows: 2; word-spacing: 0px; -webkit-text-stroke-width: 0px; white-space: nowrap; background-color: rgb(251, 251, 251); text-decoration-thickness: initial; text-decoration-style: initial; text-decoration-color: initial; display: inline !important; float: none;&quot;&gt;Ontvanger&lt;/span&gt;" style="swimlane;startSize=20;horizontal=0;html=1;" parent="zvpY97_QarNmOb90CFdL-39" vertex="1">
          <mxGeometry x="20" y="720" width="700" height="120" as="geometry" />
        </mxCell>
        <mxCell id="zvpY97_QarNmOb90CFdL-62" value="Notificatie ontvanen Micro credential" style="whiteSpace=wrap;html=1;rounded=0;" parent="zvpY97_QarNmOb90CFdL-61" vertex="1">
          <mxGeometry x="480" y="40" width="120" height="60" as="geometry" />
        </mxCell>
        <mxCell id="zvpY97_QarNmOb90CFdL-63" style="edgeStyle=orthogonalEdgeStyle;rounded=0;orthogonalLoop=1;jettySize=auto;html=1;entryX=0.5;entryY=0;entryDx=0;entryDy=0;" parent="zvpY97_QarNmOb90CFdL-39" source="zvpY97_QarNmOb90CFdL-41" target="zvpY97_QarNmOb90CFdL-45" edge="1">
          <mxGeometry relative="1" as="geometry" />
        </mxCell>
        <mxCell id="zvpY97_QarNmOb90CFdL-64" value="Geeft params door&lt;div&gt;&lt;br&gt;&lt;/div&gt;" style="edgeLabel;html=1;align=center;verticalAlign=middle;resizable=0;points=[];" parent="zvpY97_QarNmOb90CFdL-63" vertex="1" connectable="0">
          <mxGeometry x="-0.376" y="5" relative="1" as="geometry">
            <mxPoint as="offset" />
          </mxGeometry>
        </mxCell>
        <mxCell id="zvpY97_QarNmOb90CFdL-65" value="" style="edgeStyle=orthogonalEdgeStyle;rounded=0;orthogonalLoop=1;jettySize=auto;html=1;" parent="zvpY97_QarNmOb90CFdL-39" source="zvpY97_QarNmOb90CFdL-45" target="zvpY97_QarNmOb90CFdL-49" edge="1">
          <mxGeometry relative="1" as="geometry" />
        </mxCell>
        <mxCell id="zvpY97_QarNmOb90CFdL-66" value="Post request" style="edgeLabel;html=1;align=center;verticalAlign=middle;resizable=0;points=[];" parent="zvpY97_QarNmOb90CFdL-65" vertex="1" connectable="0">
          <mxGeometry x="-0.2267" relative="1" as="geometry">
            <mxPoint y="-3" as="offset" />
          </mxGeometry>
        </mxCell>
        <mxCell id="zvpY97_QarNmOb90CFdL-67" value="" style="edgeStyle=orthogonalEdgeStyle;rounded=0;orthogonalLoop=1;jettySize=auto;html=1;" parent="zvpY97_QarNmOb90CFdL-39" source="zvpY97_QarNmOb90CFdL-49" target="zvpY97_QarNmOb90CFdL-54" edge="1">
          <mxGeometry relative="1" as="geometry" />
        </mxCell>
        <mxCell id="zvpY97_QarNmOb90CFdL-68" style="edgeStyle=orthogonalEdgeStyle;rounded=0;orthogonalLoop=1;jettySize=auto;html=1;entryX=0;entryY=0.5;entryDx=0;entryDy=0;" parent="zvpY97_QarNmOb90CFdL-39" source="zvpY97_QarNmOb90CFdL-54" target="zvpY97_QarNmOb90CFdL-58" edge="1">
          <mxGeometry relative="1" as="geometry" />
        </mxCell>
        <mxCell id="zvpY97_QarNmOb90CFdL-69" value="Nee" style="edgeLabel;html=1;align=center;verticalAlign=middle;resizable=0;points=[];" parent="zvpY97_QarNmOb90CFdL-68" vertex="1" connectable="0">
          <mxGeometry x="-0.7467" y="4" relative="1" as="geometry">
            <mxPoint as="offset" />
          </mxGeometry>
        </mxCell>
        <mxCell id="zvpY97_QarNmOb90CFdL-70" value="" style="edgeStyle=orthogonalEdgeStyle;rounded=0;orthogonalLoop=1;jettySize=auto;html=1;" parent="zvpY97_QarNmOb90CFdL-39" source="zvpY97_QarNmOb90CFdL-54" target="zvpY97_QarNmOb90CFdL-46" edge="1">
          <mxGeometry relative="1" as="geometry" />
        </mxCell>
        <mxCell id="zvpY97_QarNmOb90CFdL-71" value="" style="edgeStyle=orthogonalEdgeStyle;rounded=0;orthogonalLoop=1;jettySize=auto;html=1;" parent="zvpY97_QarNmOb90CFdL-39" source="zvpY97_QarNmOb90CFdL-46" target="zvpY97_QarNmOb90CFdL-42" edge="1">
          <mxGeometry relative="1" as="geometry" />
        </mxCell>
        <mxCell id="zvpY97_QarNmOb90CFdL-72" value="" style="edgeStyle=orthogonalEdgeStyle;rounded=0;orthogonalLoop=1;jettySize=auto;html=1;" parent="zvpY97_QarNmOb90CFdL-39" source="zvpY97_QarNmOb90CFdL-56" target="zvpY97_QarNmOb90CFdL-50" edge="1">
          <mxGeometry relative="1" as="geometry" />
        </mxCell>
        <mxCell id="zvpY97_QarNmOb90CFdL-73" style="edgeStyle=orthogonalEdgeStyle;rounded=0;orthogonalLoop=1;jettySize=auto;html=1;entryX=0.5;entryY=1;entryDx=0;entryDy=0;" parent="zvpY97_QarNmOb90CFdL-39" source="zvpY97_QarNmOb90CFdL-58" target="zvpY97_QarNmOb90CFdL-56" edge="1">
          <mxGeometry relative="1" as="geometry">
            <mxPoint x="430" y="420" as="targetPoint" />
          </mxGeometry>
        </mxCell>
        <mxCell id="zvpY97_QarNmOb90CFdL-74" value="" style="edgeStyle=orthogonalEdgeStyle;rounded=0;orthogonalLoop=1;jettySize=auto;html=1;" parent="zvpY97_QarNmOb90CFdL-39" source="zvpY97_QarNmOb90CFdL-50" target="zvpY97_QarNmOb90CFdL-47" edge="1">
          <mxGeometry relative="1" as="geometry">
            <Array as="points">
              <mxPoint x="400" y="240" />
              <mxPoint x="440" y="240" />
            </Array>
          </mxGeometry>
        </mxCell>
        <mxCell id="zvpY97_QarNmOb90CFdL-75" value="" style="edgeStyle=orthogonalEdgeStyle;rounded=0;orthogonalLoop=1;jettySize=auto;html=1;" parent="zvpY97_QarNmOb90CFdL-39" source="zvpY97_QarNmOb90CFdL-47" target="zvpY97_QarNmOb90CFdL-43" edge="1">
          <mxGeometry relative="1" as="geometry" />
        </mxCell>
        <mxCell id="zvpY97_QarNmOb90CFdL-76" style="edgeStyle=orthogonalEdgeStyle;rounded=0;orthogonalLoop=1;jettySize=auto;html=1;entryX=0.5;entryY=0;entryDx=0;entryDy=0;fontSize=12;startSize=8;endSize=8;exitX=1;exitY=0.5;exitDx=0;exitDy=0;" parent="zvpY97_QarNmOb90CFdL-39" source="zvpY97_QarNmOb90CFdL-47" target="zvpY97_QarNmOb90CFdL-60" edge="1">
          <mxGeometry relative="1" as="geometry">
            <Array as="points">
              <mxPoint x="560" y="180" />
            </Array>
          </mxGeometry>
        </mxCell>
        <mxCell id="zvpY97_QarNmOb90CFdL-77" style="edgeStyle=orthogonalEdgeStyle;rounded=0;orthogonalLoop=1;jettySize=auto;html=1;entryX=0.5;entryY=0;entryDx=0;entryDy=0;fontSize=12;startSize=8;endSize=8;" parent="zvpY97_QarNmOb90CFdL-39" source="zvpY97_QarNmOb90CFdL-60" target="zvpY97_QarNmOb90CFdL-62" edge="1">
          <mxGeometry relative="1" as="geometry" />
        </mxCell>
        <mxCell id="zvpY97_QarNmOb90CFdL-108" value="Issueing Micro credential ideaal extern" style="swimlane;childLayout=stackLayout;resizeParent=1;resizeParentMax=0;horizontal=0;startSize=20;horizontalStack=0;html=1;" parent="1" vertex="1">
          <mxGeometry x="870" y="920" width="710" height="480" as="geometry" />
        </mxCell>
        <mxCell id="zvpY97_QarNmOb90CFdL-109" value="Issuer" style="swimlane;startSize=20;horizontal=0;html=1;fillColor=#dae8fc;strokeColor=#6c8ebf;" parent="zvpY97_QarNmOb90CFdL-108" vertex="1">
          <mxGeometry x="20" width="690" height="120" as="geometry" />
        </mxCell>
        <mxCell id="zvpY97_QarNmOb90CFdL-110" value="Kiest de te belonen cursist" style="ellipse;whiteSpace=wrap;html=1;fillColor=#dae8fc;strokeColor=#6c8ebf;" parent="zvpY97_QarNmOb90CFdL-109" vertex="1">
          <mxGeometry x="30" y="25" width="160" height="50" as="geometry" />
        </mxCell>
        <mxCell id="zvpY97_QarNmOb90CFdL-111" value="Presenteer foutmelding" style="whiteSpace=wrap;html=1;fillColor=#dae8fc;strokeColor=#6c8ebf;rounded=0;" parent="zvpY97_QarNmOb90CFdL-109" vertex="1">
          <mxGeometry x="250" y="20" width="120" height="60" as="geometry" />
        </mxCell>
        <mxCell id="zvpY97_QarNmOb90CFdL-112" value="Presenteer succes" style="whiteSpace=wrap;html=1;fillColor=#dae8fc;strokeColor=#6c8ebf;rounded=0;" parent="zvpY97_QarNmOb90CFdL-109" vertex="1">
          <mxGeometry x="480" y="20" width="120" height="60" as="geometry" />
        </mxCell>
        <mxCell id="zvpY97_QarNmOb90CFdL-113" value="App" style="swimlane;startSize=20;horizontal=0;html=1;fillColor=#ffe6cc;strokeColor=#d79b00;" parent="zvpY97_QarNmOb90CFdL-108" vertex="1">
          <mxGeometry x="20" y="120" width="690" height="120" as="geometry" />
        </mxCell>
        <mxCell id="zvpY97_QarNmOb90CFdL-114" style="edgeStyle=none;curved=1;rounded=0;orthogonalLoop=1;jettySize=auto;html=1;entryX=0;entryY=0.5;entryDx=0;entryDy=0;fontSize=12;startSize=8;endSize=8;" parent="zvpY97_QarNmOb90CFdL-113" source="zvpY97_QarNmOb90CFdL-117" target="zvpY97_QarNmOb90CFdL-118" edge="1">
          <mxGeometry relative="1" as="geometry" />
        </mxCell>
        <mxCell id="zvpY97_QarNmOb90CFdL-115" value="Fout" style="edgeLabel;html=1;align=center;verticalAlign=middle;resizable=0;points=[];fontSize=12;" parent="zvpY97_QarNmOb90CFdL-114" vertex="1" connectable="0">
          <mxGeometry x="-0.2159" y="-3" relative="1" as="geometry">
            <mxPoint as="offset" />
          </mxGeometry>
        </mxCell>
        <mxCell id="zvpY97_QarNmOb90CFdL-116" style="edgeStyle=orthogonalEdgeStyle;rounded=0;orthogonalLoop=1;jettySize=auto;html=1;entryX=0;entryY=0.5;entryDx=0;entryDy=0;fontSize=12;startSize=8;endSize=8;exitX=0.5;exitY=1;exitDx=0;exitDy=0;" parent="zvpY97_QarNmOb90CFdL-113" source="zvpY97_QarNmOb90CFdL-117" target="zvpY97_QarNmOb90CFdL-119" edge="1">
          <mxGeometry relative="1" as="geometry">
            <Array as="points">
              <mxPoint x="110" y="100" />
              <mxPoint x="430" y="100" />
              <mxPoint x="430" y="60" />
            </Array>
          </mxGeometry>
        </mxCell>
        <mxCell id="zvpY97_QarNmOb90CFdL-117" value="Verwerkt de informatie en gaat na of het mag" style="rounded=0;whiteSpace=wrap;html=1;fillColor=#ffe6cc;strokeColor=#d79b00;" parent="zvpY97_QarNmOb90CFdL-113" vertex="1">
          <mxGeometry x="50" y="20" width="120" height="60" as="geometry" />
        </mxCell>
        <mxCell id="zvpY97_QarNmOb90CFdL-118" value="Genereer foutmelding" style="whiteSpace=wrap;html=1;fillColor=#ffe6cc;strokeColor=#d79b00;rounded=0;" parent="zvpY97_QarNmOb90CFdL-113" vertex="1">
          <mxGeometry x="250" y="20" width="120" height="60" as="geometry" />
        </mxCell>
        <mxCell id="zvpY97_QarNmOb90CFdL-119" value="Genereer MC.&lt;br&gt;Terugkoppeling naar issuer.&amp;nbsp;" style="whiteSpace=wrap;html=1;fillColor=#ffe6cc;strokeColor=#d79b00;rounded=0;" parent="zvpY97_QarNmOb90CFdL-113" vertex="1">
          <mxGeometry x="480" y="30" width="120" height="60" as="geometry" />
        </mxCell>
        <mxCell id="zvpY97_QarNmOb90CFdL-120" value="Wallet Ontvanger" style="swimlane;startSize=20;horizontal=0;html=1;fillColor=#f8cecc;strokeColor=#b85450;" parent="zvpY97_QarNmOb90CFdL-108" vertex="1">
          <mxGeometry x="20" y="240" width="690" height="120" as="geometry" />
        </mxCell>
        <mxCell id="zvpY97_QarNmOb90CFdL-121" value="Voeg MC toe" style="whiteSpace=wrap;html=1;fillColor=#f8cecc;strokeColor=#b85450;rounded=0;" parent="zvpY97_QarNmOb90CFdL-120" vertex="1">
          <mxGeometry x="500" y="30" width="120" height="60" as="geometry" />
        </mxCell>
        <mxCell id="zvpY97_QarNmOb90CFdL-122" value="&lt;span style=&quot;color: rgb(0, 0, 0); font-family: Helvetica; font-size: 12px; font-style: normal; font-variant-ligatures: normal; font-variant-caps: normal; font-weight: 700; letter-spacing: normal; orphans: 2; text-align: center; text-indent: 0px; text-transform: none; widows: 2; word-spacing: 0px; -webkit-text-stroke-width: 0px; white-space: nowrap; background-color: rgb(251, 251, 251); text-decoration-thickness: initial; text-decoration-style: initial; text-decoration-color: initial; display: inline !important; float: none;&quot;&gt;Ontvanger&lt;/span&gt;" style="swimlane;startSize=20;horizontal=0;html=1;" parent="zvpY97_QarNmOb90CFdL-108" vertex="1">
          <mxGeometry x="20" y="360" width="690" height="120" as="geometry" />
        </mxCell>
        <mxCell id="zvpY97_QarNmOb90CFdL-123" value="Notificatie ontvangen Micro credential" style="whiteSpace=wrap;html=1;rounded=0;" parent="zvpY97_QarNmOb90CFdL-122" vertex="1">
          <mxGeometry x="540" y="30" width="120" height="60" as="geometry" />
        </mxCell>
        <mxCell id="zvpY97_QarNmOb90CFdL-124" style="edgeStyle=none;curved=1;rounded=0;orthogonalLoop=1;jettySize=auto;html=1;exitX=0.5;exitY=0;exitDx=0;exitDy=0;fontSize=12;startSize=8;endSize=8;" parent="zvpY97_QarNmOb90CFdL-122" source="zvpY97_QarNmOb90CFdL-123" target="zvpY97_QarNmOb90CFdL-123" edge="1">
          <mxGeometry relative="1" as="geometry" />
        </mxCell>
        <mxCell id="zvpY97_QarNmOb90CFdL-125" style="edgeStyle=orthogonalEdgeStyle;rounded=0;orthogonalLoop=1;jettySize=auto;html=1;entryX=0.5;entryY=0;entryDx=0;entryDy=0;" parent="zvpY97_QarNmOb90CFdL-108" source="zvpY97_QarNmOb90CFdL-110" target="zvpY97_QarNmOb90CFdL-117" edge="1">
          <mxGeometry relative="1" as="geometry" />
        </mxCell>
        <mxCell id="zvpY97_QarNmOb90CFdL-126" value="" style="edgeStyle=orthogonalEdgeStyle;rounded=0;orthogonalLoop=1;jettySize=auto;html=1;" parent="zvpY97_QarNmOb90CFdL-108" source="zvpY97_QarNmOb90CFdL-117" edge="1">
          <mxGeometry relative="1" as="geometry" />
        </mxCell>
        <mxCell id="zvpY97_QarNmOb90CFdL-127" value="Post request" style="edgeLabel;html=1;align=center;verticalAlign=middle;resizable=0;points=[];" parent="zvpY97_QarNmOb90CFdL-126" vertex="1" connectable="0">
          <mxGeometry x="-0.2267" relative="1" as="geometry">
            <mxPoint y="-3" as="offset" />
          </mxGeometry>
        </mxCell>
        <mxCell id="zvpY97_QarNmOb90CFdL-128" value="" style="edgeStyle=orthogonalEdgeStyle;rounded=0;orthogonalLoop=1;jettySize=auto;html=1;" parent="zvpY97_QarNmOb90CFdL-108" edge="1">
          <mxGeometry relative="1" as="geometry" />
        </mxCell>
        <mxCell id="zvpY97_QarNmOb90CFdL-129" style="edgeStyle=orthogonalEdgeStyle;rounded=0;orthogonalLoop=1;jettySize=auto;html=1;entryX=0;entryY=0.5;entryDx=0;entryDy=0;" parent="zvpY97_QarNmOb90CFdL-108" edge="1">
          <mxGeometry relative="1" as="geometry" />
        </mxCell>
        <mxCell id="zvpY97_QarNmOb90CFdL-130" value="Nee" style="edgeLabel;html=1;align=center;verticalAlign=middle;resizable=0;points=[];" parent="zvpY97_QarNmOb90CFdL-129" vertex="1" connectable="0">
          <mxGeometry x="-0.7467" y="4" relative="1" as="geometry">
            <mxPoint as="offset" />
          </mxGeometry>
        </mxCell>
        <mxCell id="zvpY97_QarNmOb90CFdL-131" value="" style="edgeStyle=orthogonalEdgeStyle;rounded=0;orthogonalLoop=1;jettySize=auto;html=1;" parent="zvpY97_QarNmOb90CFdL-108" target="zvpY97_QarNmOb90CFdL-118" edge="1">
          <mxGeometry relative="1" as="geometry" />
        </mxCell>
        <mxCell id="zvpY97_QarNmOb90CFdL-132" value="" style="edgeStyle=orthogonalEdgeStyle;rounded=0;orthogonalLoop=1;jettySize=auto;html=1;" parent="zvpY97_QarNmOb90CFdL-108" source="zvpY97_QarNmOb90CFdL-118" target="zvpY97_QarNmOb90CFdL-111" edge="1">
          <mxGeometry relative="1" as="geometry" />
        </mxCell>
        <mxCell id="zvpY97_QarNmOb90CFdL-133" value="" style="edgeStyle=orthogonalEdgeStyle;rounded=0;orthogonalLoop=1;jettySize=auto;html=1;" parent="zvpY97_QarNmOb90CFdL-108" edge="1">
          <mxGeometry relative="1" as="geometry" />
        </mxCell>
        <mxCell id="zvpY97_QarNmOb90CFdL-134" style="edgeStyle=orthogonalEdgeStyle;rounded=0;orthogonalLoop=1;jettySize=auto;html=1;entryX=0.5;entryY=1;entryDx=0;entryDy=0;" parent="zvpY97_QarNmOb90CFdL-108" edge="1">
          <mxGeometry relative="1" as="geometry">
            <mxPoint x="430" y="420" as="targetPoint" />
          </mxGeometry>
        </mxCell>
        <mxCell id="zvpY97_QarNmOb90CFdL-135" value="" style="edgeStyle=orthogonalEdgeStyle;rounded=0;orthogonalLoop=1;jettySize=auto;html=1;" parent="zvpY97_QarNmOb90CFdL-108" target="zvpY97_QarNmOb90CFdL-119" edge="1">
          <mxGeometry relative="1" as="geometry" />
        </mxCell>
        <mxCell id="zvpY97_QarNmOb90CFdL-136" value="" style="edgeStyle=orthogonalEdgeStyle;rounded=0;orthogonalLoop=1;jettySize=auto;html=1;" parent="zvpY97_QarNmOb90CFdL-108" source="zvpY97_QarNmOb90CFdL-119" target="zvpY97_QarNmOb90CFdL-112" edge="1">
          <mxGeometry relative="1" as="geometry" />
        </mxCell>
        <mxCell id="zvpY97_QarNmOb90CFdL-137" value="" style="edgeStyle=orthogonalEdgeStyle;rounded=0;orthogonalLoop=1;jettySize=auto;html=1;fontSize=12;startSize=8;endSize=8;" parent="zvpY97_QarNmOb90CFdL-108" source="zvpY97_QarNmOb90CFdL-121" target="zvpY97_QarNmOb90CFdL-123" edge="1">
          <mxGeometry relative="1" as="geometry" />
        </mxCell>
        <mxCell id="zvpY97_QarNmOb90CFdL-138" style="edgeStyle=orthogonalEdgeStyle;rounded=0;orthogonalLoop=1;jettySize=auto;html=1;entryX=0.5;entryY=0;entryDx=0;entryDy=0;fontSize=12;startSize=8;endSize=8;" parent="zvpY97_QarNmOb90CFdL-108" source="zvpY97_QarNmOb90CFdL-119" target="zvpY97_QarNmOb90CFdL-121" edge="1">
          <mxGeometry relative="1" as="geometry" />
        </mxCell>
        <mxCell id="BFUgVyRbVtO_Cfpt6LdI-1" value="" style="group" vertex="1" connectable="0" parent="1">
          <mxGeometry x="870" y="410" width="711" height="360" as="geometry" />
        </mxCell>
        <mxCell id="zvpY97_QarNmOb90CFdL-78" value="Issueing micro credential&amp;nbsp; extern" style="swimlane;childLayout=stackLayout;resizeParent=1;resizeParentMax=0;horizontal=0;startSize=20;horizontalStack=0;html=1;" parent="BFUgVyRbVtO_Cfpt6LdI-1" vertex="1">
          <mxGeometry y="120" width="710.0138696255201" height="360" as="geometry">
            <mxRectangle y="120" width="40" height="200" as="alternateBounds" />
          </mxGeometry>
        </mxCell>
        <mxCell id="zvpY97_QarNmOb90CFdL-79" value="Issuer" style="swimlane;startSize=20;horizontal=0;html=1;fillColor=#dae8fc;strokeColor=#6c8ebf;" parent="zvpY97_QarNmOb90CFdL-78" vertex="1">
          <mxGeometry x="20" width="690.0138696255201" height="120" as="geometry" />
        </mxCell>
        <mxCell id="zvpY97_QarNmOb90CFdL-80" value="Kiest de te belonen cursist" style="ellipse;whiteSpace=wrap;html=1;fillColor=#dae8fc;strokeColor=#6c8ebf;" parent="zvpY97_QarNmOb90CFdL-79" vertex="1">
          <mxGeometry x="39.44521497919556" y="20" width="157.78085991678225" height="50" as="geometry" />
        </mxCell>
        <mxCell id="zvpY97_QarNmOb90CFdL-81" value="Presenteer foutmelding" style="whiteSpace=wrap;html=1;fillColor=#dae8fc;strokeColor=#6c8ebf;rounded=0;" parent="zvpY97_QarNmOb90CFdL-79" vertex="1">
          <mxGeometry x="246.53259361997226" y="20" width="118.3356449375867" height="60" as="geometry" />
        </mxCell>
        <mxCell id="zvpY97_QarNmOb90CFdL-82" value="Presenteer link + log" style="whiteSpace=wrap;html=1;fillColor=#dae8fc;strokeColor=#6c8ebf;rounded=0;" parent="zvpY97_QarNmOb90CFdL-79" vertex="1">
          <mxGeometry x="414.1747572815534" y="20" width="118.3356449375867" height="60" as="geometry" />
        </mxCell>
        <mxCell id="zvpY97_QarNmOb90CFdL-83" value="App" style="swimlane;startSize=20;horizontal=0;html=1;fillColor=#ffe6cc;strokeColor=#d79b00;" parent="zvpY97_QarNmOb90CFdL-78" vertex="1">
          <mxGeometry x="20" y="120" width="690.0138696255201" height="120" as="geometry" />
        </mxCell>
        <mxCell id="zvpY97_QarNmOb90CFdL-84" style="edgeStyle=none;curved=1;rounded=0;orthogonalLoop=1;jettySize=auto;html=1;entryX=0;entryY=0.5;entryDx=0;entryDy=0;fontSize=12;startSize=8;endSize=8;" parent="zvpY97_QarNmOb90CFdL-83" source="zvpY97_QarNmOb90CFdL-87" target="zvpY97_QarNmOb90CFdL-88" edge="1">
          <mxGeometry relative="1" as="geometry" />
        </mxCell>
        <mxCell id="zvpY97_QarNmOb90CFdL-85" value="Fout" style="edgeLabel;html=1;align=center;verticalAlign=middle;resizable=0;points=[];fontSize=12;" parent="zvpY97_QarNmOb90CFdL-84" vertex="1" connectable="0">
          <mxGeometry x="-0.2159" y="-3" relative="1" as="geometry">
            <mxPoint as="offset" />
          </mxGeometry>
        </mxCell>
        <mxCell id="zvpY97_QarNmOb90CFdL-86" style="edgeStyle=orthogonalEdgeStyle;rounded=0;orthogonalLoop=1;jettySize=auto;html=1;entryX=0.5;entryY=1;entryDx=0;entryDy=0;fontSize=12;startSize=8;endSize=8;exitX=0.5;exitY=1;exitDx=0;exitDy=0;" parent="zvpY97_QarNmOb90CFdL-83" source="zvpY97_QarNmOb90CFdL-87" target="zvpY97_QarNmOb90CFdL-89" edge="1">
          <mxGeometry relative="1" as="geometry" />
        </mxCell>
        <mxCell id="zvpY97_QarNmOb90CFdL-87" value="Verwerkt de informatie en gaat na of het mag" style="rounded=0;whiteSpace=wrap;html=1;fillColor=#ffe6cc;strokeColor=#d79b00;" parent="zvpY97_QarNmOb90CFdL-83" vertex="1">
          <mxGeometry x="59.16782246879335" y="20" width="118.3356449375867" height="60" as="geometry" />
        </mxCell>
        <mxCell id="zvpY97_QarNmOb90CFdL-88" value="Genereer foutmelding" style="whiteSpace=wrap;html=1;fillColor=#ffe6cc;strokeColor=#d79b00;rounded=0;" parent="zvpY97_QarNmOb90CFdL-83" vertex="1">
          <mxGeometry x="246.53259361997226" y="20" width="118.3356449375867" height="60" as="geometry" />
        </mxCell>
        <mxCell id="zvpY97_QarNmOb90CFdL-89" value="Genereer bericht van succes" style="whiteSpace=wrap;html=1;fillColor=#ffe6cc;strokeColor=#d79b00;rounded=0;" parent="zvpY97_QarNmOb90CFdL-83" vertex="1">
          <mxGeometry x="414.1747572815534" y="20" width="118.3356449375867" height="60" as="geometry" />
        </mxCell>
        <mxCell id="zvpY97_QarNmOb90CFdL-94" value="" style="edgeStyle=orthogonalEdgeStyle;rounded=0;orthogonalLoop=1;jettySize=auto;html=1;" parent="zvpY97_QarNmOb90CFdL-78" source="zvpY97_QarNmOb90CFdL-87" edge="1">
          <mxGeometry relative="1" as="geometry" />
        </mxCell>
        <mxCell id="zvpY97_QarNmOb90CFdL-95" value="Post request" style="edgeLabel;html=1;align=center;verticalAlign=middle;resizable=0;points=[];" parent="zvpY97_QarNmOb90CFdL-94" vertex="1" connectable="0">
          <mxGeometry x="-0.2267" relative="1" as="geometry">
            <mxPoint y="-3" as="offset" />
          </mxGeometry>
        </mxCell>
        <mxCell id="zvpY97_QarNmOb90CFdL-96" value="" style="edgeStyle=orthogonalEdgeStyle;rounded=0;orthogonalLoop=1;jettySize=auto;html=1;" parent="zvpY97_QarNmOb90CFdL-78" edge="1">
          <mxGeometry relative="1" as="geometry" />
        </mxCell>
        <mxCell id="zvpY97_QarNmOb90CFdL-97" style="edgeStyle=orthogonalEdgeStyle;rounded=0;orthogonalLoop=1;jettySize=auto;html=1;entryX=0;entryY=0.5;entryDx=0;entryDy=0;" parent="zvpY97_QarNmOb90CFdL-78" edge="1">
          <mxGeometry relative="1" as="geometry" />
        </mxCell>
        <mxCell id="zvpY97_QarNmOb90CFdL-98" value="Nee" style="edgeLabel;html=1;align=center;verticalAlign=middle;resizable=0;points=[];" parent="zvpY97_QarNmOb90CFdL-97" vertex="1" connectable="0">
          <mxGeometry x="-0.7467" y="4" relative="1" as="geometry">
            <mxPoint as="offset" />
          </mxGeometry>
        </mxCell>
        <mxCell id="zvpY97_QarNmOb90CFdL-99" value="" style="edgeStyle=orthogonalEdgeStyle;rounded=0;orthogonalLoop=1;jettySize=auto;html=1;" parent="zvpY97_QarNmOb90CFdL-78" target="zvpY97_QarNmOb90CFdL-88" edge="1">
          <mxGeometry relative="1" as="geometry" />
        </mxCell>
        <mxCell id="zvpY97_QarNmOb90CFdL-101" value="" style="edgeStyle=orthogonalEdgeStyle;rounded=0;orthogonalLoop=1;jettySize=auto;html=1;" parent="zvpY97_QarNmOb90CFdL-78" edge="1">
          <mxGeometry relative="1" as="geometry" />
        </mxCell>
        <mxCell id="zvpY97_QarNmOb90CFdL-102" style="edgeStyle=orthogonalEdgeStyle;rounded=0;orthogonalLoop=1;jettySize=auto;html=1;entryX=0.5;entryY=1;entryDx=0;entryDy=0;" parent="zvpY97_QarNmOb90CFdL-78" edge="1">
          <mxGeometry relative="1" as="geometry">
            <mxPoint x="424.0360610263523" y="420" as="targetPoint" />
          </mxGeometry>
        </mxCell>
        <mxCell id="zvpY97_QarNmOb90CFdL-103" value="" style="edgeStyle=orthogonalEdgeStyle;rounded=0;orthogonalLoop=1;jettySize=auto;html=1;" parent="zvpY97_QarNmOb90CFdL-78" target="zvpY97_QarNmOb90CFdL-89" edge="1">
          <mxGeometry relative="1" as="geometry" />
        </mxCell>
        <mxCell id="zvpY97_QarNmOb90CFdL-105" value="" style="edgeStyle=orthogonalEdgeStyle;rounded=0;orthogonalLoop=1;jettySize=auto;html=1;fontSize=12;startSize=8;endSize=8;" parent="zvpY97_QarNmOb90CFdL-78" target="zvpY97_QarNmOb90CFdL-91" edge="1">
          <mxGeometry relative="1" as="geometry" />
        </mxCell>
        <mxCell id="zvpY97_QarNmOb90CFdL-106" style="edgeStyle=orthogonalEdgeStyle;rounded=0;orthogonalLoop=1;jettySize=auto;html=1;entryX=0.5;entryY=0;entryDx=0;entryDy=0;fontSize=12;startSize=8;endSize=8;" parent="zvpY97_QarNmOb90CFdL-78" source="zvpY97_QarNmOb90CFdL-82" edge="1">
          <mxGeometry relative="1" as="geometry">
            <Array as="points">
              <mxPoint x="670.5686546463246" y="40" />
            </Array>
          </mxGeometry>
        </mxCell>
        <mxCell id="zvpY97_QarNmOb90CFdL-90" value="&lt;span style=&quot;color: rgb(0, 0, 0); font-family: Helvetica; font-size: 12px; font-style: normal; font-variant-ligatures: normal; font-variant-caps: normal; font-weight: 700; letter-spacing: normal; orphans: 2; text-align: center; text-indent: 0px; text-transform: none; widows: 2; word-spacing: 0px; -webkit-text-stroke-width: 0px; white-space: nowrap; background-color: rgb(251, 251, 251); text-decoration-thickness: initial; text-decoration-style: initial; text-decoration-color: initial; display: inline !important; float: none;&quot;&gt;Ontvanger&lt;/span&gt;" style="swimlane;startSize=20;horizontal=0;html=1;" parent="zvpY97_QarNmOb90CFdL-78" vertex="1">
          <mxGeometry x="20" y="240" width="690.0138696255201" height="120" as="geometry" />
        </mxCell>
        <mxCell id="zvpY97_QarNmOb90CFdL-91" value="Scan de QR/ klik link voor verzamelen Micro credential" style="whiteSpace=wrap;html=1;rounded=0;" parent="zvpY97_QarNmOb90CFdL-90" vertex="1">
          <mxGeometry x="532.5104022191401" y="25" width="118.3356449375867" height="60" as="geometry" />
        </mxCell>
        <mxCell id="zvpY97_QarNmOb90CFdL-92" style="edgeStyle=none;curved=1;rounded=0;orthogonalLoop=1;jettySize=auto;html=1;exitX=0.5;exitY=0;exitDx=0;exitDy=0;fontSize=12;startSize=8;endSize=8;" parent="zvpY97_QarNmOb90CFdL-90" source="zvpY97_QarNmOb90CFdL-91" target="zvpY97_QarNmOb90CFdL-91" edge="1">
          <mxGeometry relative="1" as="geometry" />
        </mxCell>
        <mxCell id="zvpY97_QarNmOb90CFdL-93" style="edgeStyle=orthogonalEdgeStyle;rounded=0;orthogonalLoop=1;jettySize=auto;html=1;entryX=0.5;entryY=0;entryDx=0;entryDy=0;" parent="zvpY97_QarNmOb90CFdL-78" source="zvpY97_QarNmOb90CFdL-80" target="zvpY97_QarNmOb90CFdL-87" edge="1">
          <mxGeometry relative="1" as="geometry" />
        </mxCell>
        <mxCell id="zvpY97_QarNmOb90CFdL-100" value="" style="edgeStyle=orthogonalEdgeStyle;rounded=0;orthogonalLoop=1;jettySize=auto;html=1;" parent="zvpY97_QarNmOb90CFdL-78" source="zvpY97_QarNmOb90CFdL-88" target="zvpY97_QarNmOb90CFdL-81" edge="1">
          <mxGeometry relative="1" as="geometry" />
        </mxCell>
        <mxCell id="zvpY97_QarNmOb90CFdL-104" value="" style="edgeStyle=orthogonalEdgeStyle;rounded=0;orthogonalLoop=1;jettySize=auto;html=1;" parent="zvpY97_QarNmOb90CFdL-78" source="zvpY97_QarNmOb90CFdL-89" target="zvpY97_QarNmOb90CFdL-82" edge="1">
          <mxGeometry relative="1" as="geometry" />
        </mxCell>
        <mxCell id="zvpY97_QarNmOb90CFdL-107" style="edgeStyle=orthogonalEdgeStyle;rounded=0;orthogonalLoop=1;jettySize=auto;html=1;entryX=0.5;entryY=0;entryDx=0;entryDy=0;fontSize=12;startSize=8;endSize=8;exitX=1;exitY=0.5;exitDx=0;exitDy=0;" parent="zvpY97_QarNmOb90CFdL-78" source="zvpY97_QarNmOb90CFdL-82" target="zvpY97_QarNmOb90CFdL-91" edge="1">
          <mxGeometry relative="1" as="geometry" />
        </mxCell>
      </root>
    </mxGraphModel>
  </diagram>
</mxfile>
